<svg width="26" height="26" viewBox="0 0 26 26" fill="none" xmlns="http://www.w3.org/2000/svg">
<path d="M24.5 0.5H1.5C0.946875 0.5 0.5 0.946875 0.5 1.5V24.5C0.5 25.0531 0.946875 25.5 1.5 25.5H24.5C25.0531 25.5 25.5 25.0531 25.5 24.5V1.5C25.5 0.946875 25.0531 0.5 24.5 0.5ZM21.6125 7.79688H19.6156C18.05 7.79688 17.7469 8.54062 17.7469 9.63437V12.0437H21.4844L20.9969 15.8156H17.7469V25.5H13.85V15.8188H10.5906V12.0437H13.85V9.2625C13.85 6.03437 15.8219 4.275 18.7031 4.275C20.0844 4.275 21.2688 4.37813 21.6156 4.425V7.79688H21.6125Z" fill="black"/>
</svg>
