<svg width="28" height="27" viewBox="0 0 28 27" fill="none" xmlns="http://www.w3.org/2000/svg">
<path d="M14 8.8463C16.4371 8.8463 18.426 10.8352 18.426 13.2723C18.426 15.7094 16.4371 17.6982 14 17.6982C11.5629 17.6982 9.57405 15.7094 9.57405 13.2723C9.57405 10.8352 11.5629 8.8463 14 8.8463ZM0.725416 13.2723C0.725416 11.4395 0.708815 9.62325 0.811743 7.79376C0.914673 5.66876 1.39944 3.78282 2.95334 2.22892C4.51057 0.67169 6.39319 0.190245 8.51819 0.0873157C10.351 -0.015614 12.1672 0.000987607 13.9967 0.000987607C15.8295 0.000987607 17.6457 -0.015614 19.4752 0.0873157C21.6002 0.190245 23.4862 0.675011 25.0401 2.22892C26.5973 3.78614 27.0787 5.66876 27.1817 7.79376C27.2846 9.62657 27.268 11.4428 27.268 13.2723C27.268 15.1018 27.2846 16.9213 27.1817 18.7508C27.0787 20.8758 26.594 22.7617 25.0401 24.3156C23.4828 25.8729 21.6002 26.3543 19.4752 26.4572C17.6424 26.5602 15.8262 26.5436 13.9967 26.5436C12.1639 26.5436 10.3477 26.5602 8.51819 26.4572C6.39319 26.3543 4.50725 25.8695 2.95334 24.3156C1.39612 22.7584 0.914673 20.8758 0.811743 18.7508C0.705494 16.9213 0.725416 15.1051 0.725416 13.2723ZM14 20.0822C17.7686 20.0822 20.81 17.0408 20.81 13.2723C20.81 9.50372 17.7686 6.46231 14 6.46231C10.2315 6.46231 7.19007 9.50372 7.19007 13.2723C7.19007 17.0408 10.2315 20.0822 14 20.0822ZM6.91116 7.77384C7.79104 7.77384 8.50159 7.06329 8.50159 6.18341C8.50159 5.30353 7.79104 4.59298 6.91116 4.59298C6.03127 4.59298 5.32073 5.30353 5.32073 6.18341C5.32047 6.39234 5.36143 6.59927 5.44126 6.79235C5.52109 6.98543 5.63823 7.16086 5.78597 7.3086C5.93371 7.45633 6.10914 7.57347 6.30222 7.65331C6.49529 7.73314 6.70223 7.7741 6.91116 7.77384Z" fill="black"/>
</svg>
